# xmcd CD database file
# Copyright (C) 1997 Ti Kan
# 
# Track frame offsets:
#     150
#     4875
#     25905
#     38037
#     54350
#     65365
#     76250
#     89085
#     101820
#     120752
#     142777
#     176237
#     192897
#     206500
#     224425
# 
# Disc length: 3277 seconds
# 
# Revision: 1
# Processed by: cddbd v1.4b41PL1 Copyright (c) Steve Scherf et al.
# Submitted via: DiscPlay 4.0.4
# 
DISCID=c80ccb0f
DTITLE=Adrian Lester, Clive Rowe, Clare Burt, Rebecca Front - Company - 1996
DTITLE=London Cast Recording
DYEAR=1900
DGENRE=
TTITLE0=Overture
TTITLE1=Company
TTITLE2=The Little Things You Do Together
TTITLE3=Sorry Grateful
TTITLE4=You Could Drive a Person Crazy
TTITLE5=Have I Got a Girl For You
TTITLE6=Someone Is Waiting
TTITLE7=Another Hundred People
TTITLE8=Getting Married Today
TTITLE9=Marry Me a Little
TTITLE10=Side By Side/What Would We Do Without You?
TTITLE11=Poor Baby
TTITLE12=Barcelona
TTITLE13=The Ladies Who Lunch
TTITLE14=Being Alive
EXTD=
EXTT0=
EXTT1=
EXTT2=
EXTT3=
EXTT4=
EXTT5=
EXTT6=
EXTT7=
EXTT8=
EXTT9=
EXTT10=
EXTT11=
EXTT12=
EXTT13=
EXTT14=
PLAYORDER=
